# AST/ASF file generated using VICON BodyLanguage
# -----------------------------------------------
:version 1.10
:name VICON
:units
  mass 1.0
  length 0.45
  angle deg
:documentation
   .ast/.asf automatically generated from VICON data using
   VICON BodyBuilder and BodyLanguage model FoxedUp or BRILLIANT.MOD
:root
   order TX TY TZ RX RY RZ
   axis XYZ
   position 0 0 0  
   orientation 0 0 0 
:bonedata
  begin
     id 1 
     name lhipjoint
     direction 0.602128 -0.715006 0.355257 
     length 2.21237 
     axis 0 0 0  XYZ
  end
  begin
     id 2 
     name lfemur
     direction 0.34202 -0.939693 0  
     length 6.71649  
     axis 0 0 20  XYZ
    dof rx ry rz
    limits (-160.0 20.0)
           (-70.0 70.0)
           (-60.0 70.0)
  end
  begin
     id 3 
     name ltibia
     direction 0.34202 -0.939693 0   
     length 6.97123   
     axis 0 0 20   XYZ
    dof rx
    limits (-10.0 170.0)
  end
  begin
     id 4 
     name lfoot
     direction 0.0655697 -0.180151 0.981451   
     length 1.80924   
     axis -90 7.62852e-016 20   XYZ
    dof rx rz
    limits (-45.0 90.0)
           (-70.0 20.0)
  end
  begin
     id 5 
     name ltoes
     direction 1.53545e-011 -4.21827e-011 1   
     length 0.916331   
     axis -90 7.62852e-016 20   XYZ
    dof rx
    limits (-90.0 20.0)
  end
  begin
     id 6 
     name rhipjoint
     direction -0.625414 -0.698792 0.347201   
     length 2.2637  
     axis 0 0 0  XYZ 
  end
  begin
     id 7 
     name rfemur
     direction -0.34202 -0.939693 0   
     length 7.07595   
     axis 0 0 -20   XYZ
    dof rx ry rz
    limits (-160.0 20.0)
           (-70.0 70.0)
           (-70.0 60.0)
  end
  begin
     id 8 
     name rtibia
     direction -0.34202 -0.939693 0   
     length 7.22924   
     axis 0 0 -20   XYZ
    dof rx
    limits (-10.0 170.0)
 end
 begin
     id 9 
     name rfoot
     direction -0.0766747 -0.210662 0.974547   
     length 1.98482  
     axis -90 -7.62852e-016 -20   XYZ
    dof rx rz
    limits (-45.0 90.0)
           (-20.0 70.0)
  end
  begin
     id 10 
     name rtoes
     direction -1.53532e-011 -4.21867e-011 1   
     length 0.999842   
     axis -90 -7.62852e-016 -20   XYZ
    dof rx
    limits (-90.0 20.0)
  end
  begin
     id 11 
     name lowerback
     direction -0.0224668 0.997354 -0.0691422   
     length 2.09945   
     axis 0 0 0   XYZ
    dof rx ry rz
    limits (-20.0 45.0)
           (-30.0 30.0)
           (-30.0 30.0)
  end
  begin
     id 12 
     name upperback
     direction 0.0134698 0.998451 -0.0539888   
     length 2.09758   
     axis 0 0 0   XYZ
    dof rx ry rz
    limits (-20.0 45.0)
           (-30.0 30.0)
           (-30.0 30.0)
  end
  begin
     id 13 
     name thorax
     direction 0.0241905 0.99948 -0.0213333   
     length 2.10428   
     axis 0 0 0   XYZ
    dof rx ry rz
    limits (-20.0 45.0)
           (-30.0 30.0)
           (-30.0 30.0)
  end
  begin
     id 14 
     name lowerneck
     direction -0.00866847 0.995978 0.0891737   
     length 1.3959   
     axis 0 0 0   XYZ
    dof rx ry rz
    limits (-20.0 45.0)
           (-30.0 30.0)
           (-30.0 30.0)
  end
  begin
     id 15 
     name upperneck
     direction 0.0680679 0.992203 0.104404   
     length 1.39452   
     axis 0 0 0   XYZ
    dof rx ry rz
    limits (-20.0 45.0)
           (-30.0 30.0)
           (-30.0 30.0)
  end
  begin
     id 16
     name head
     direction 0.0242216 0.999358 0.0264054  
     length 1.40433  
     axis 0 0 0   XYZ
    dof rx ry rz
    limits (-20.0 45.0)
           (-30.0 30.0)
           (-30.0 30.0)
  end
  begin
     id 17 
     name lclavicle
     direction 0.929368 0.362991 -0.0671771  
     length 3.04887  
     axis 0 0 0   XYZ
    dof ry rz
    limits (-20.0 10.0)
           (0.0 20.0)
  end
  begin
     id 18 
     name lhumerus
     direction 1 -4.48967e-011 -7.13741e-028   
     length 4.77195   
     axis -180 -30 -90   XYZ
    dof rx ry rz
    limits (-60.0 90.0)
           (-90.0 90.0)
           (-90.0 90.0)
  end
  begin
     id 19
     name lradius
     direction 1 -4.48977e-011 3.60404e-027   
     length 2.98444   
     axis -180 -30 -90   XYZ
    dof rx
    limits (-10.0 170.0)
  end
  begin
     id 20
     name lwrist
     direction 1 -4.48997e-011 7.54877e-027   
     length 1.49222   
     axis -7.18178e-015 90 90   XYZ
    dof ry
    limits (-180.0 0.0)
 end
  begin
     id 21 
     name lhand
     direction 1 -4.489e-011 1.51105e-026   
     length 0.992285   
     axis -9.63605e-015 90 90   XYZ
    dof rx rz
    limits (-90.0 90.0)
           (-45.0 45.0)
  end
  begin
     id 22 
     name lfingers
     direction 1 -4.48998e-011 3.01948e-026   
     length 0.800006   
     axis -1.92718e-014 90 90   XYZ
    dof rx
    limits (0.0 90.0)
  end
  begin
     id 23
     name lthumb
     direction 0.707107 -6.34881e-011 0.707107   
     length 1.14865   
     axis -90 45 -3.53137e-014   XYZ
    dof rx rz
    limits (-45.0 45.0)
           (-45.0 45.0)
  end
  begin
     id 24 
     name rclavicle
     direction -0.945672 0.324529 0.0196374   
     length 3.4236  
     axis 0 0 0   XYZ 
    dof ry rz
    limits (-10.0 20.0)
           (-20.0 0.0)
  end
  begin
     id 25 
     name rhumerus
     direction -1 -4.4896e-011 1.02757e-029  
     length 4.62052   
     axis -180 30 90   XYZ
    dof rx ry rz
    limits (-90.0 60.0)
           (-90.0 90.0)
           (-90.0 90.0)
  end
  begin
     id 26 
     name rradius
     direction -1 -4.48982e-011 3.85962e-027   
     length 2.95332   
     axis -180 30 90   XYZ
    dof rx
    limits (-10.0 170.0)
  end
  begin
     id 27 
     name rwrist
     direction -1 -4.48961e-011 7.55118e-027   
     length 1.47666   
     axis -7.18178e-015 -90 -90   XYZ
    dof ry
    limits (-180.0 0.0)
  end
  begin
     id 28
     name rhand
     direction -1 -4.48984e-011 1.50994e-026   
     length 0.990956   
     axis -9.63605e-015 -90 -90   XYZ
    dof rx rz
    limits (-90.0 90.0)
           (-45.0 45.0)
  end
  begin
     id 29
     name rfingers
     direction -1 -4.4892e-011 3.02158e-026   
     length 0.798934   
     axis -1.92718e-014 -90 -90   XYZ
    dof rx
    limits (0.0 90.0)
  end
  begin
     id 30
     name rthumb
     direction -0.707107 -6.34916e-011 0.707107   
     length 1.14711   
     axis -90 -45 3.53137e-014   XYZ
    dof rx rz
    limits (-45.0 45.0)
           (-45.0 45.0)
  end
:hierarchy
  begin
    root lhipjoint rhipjoint lowerback
    lhipjoint lfemur
    lfemur ltibia
    ltibia lfoot
    lfoot ltoes
    rhipjoint rfemur
    rfemur rtibia
    rtibia rfoot
    rfoot rtoes
    lowerback upperback
    upperback thorax
    thorax lowerneck lclavicle rclavicle
    lowerneck upperneck
    upperneck head
    lclavicle lhumerus
    lhumerus lradius
    lradius lwrist
    lwrist lhand lthumb
    lhand lfingers
    rclavicle rhumerus
    rhumerus rradius
    rradius rwrist
    rwrist rhand rthumb
    rhand rfingers
  end

#!OML:ASF H:\ManfredObstacles\Project 1\Capture day 1\Session 1\Male.ASF
:FULLY-SPECIFIED
:DEGREES
253
root 1.12003 16.538 0.598671 -172.369 -8.23071 -177.955
lowerback -11.0733 -3.26285 -1.29242
upperback 1.44244 -4.38087 2.1776
thorax 8.02398 -2.25997 2.24636
lowerneck -0.990593 -1.82721 -6.20325
upperneck -6.67442 -1.70653 9.0951
head -1.83514 -0.744825 4.14158
rclavicle -4.9398e-014 1.05356e-014
rhumerus -42.3999 -28.4482 -67.0194
rradius 24.9536
rwrist 34.1092
rhand -0.760513 -8.7135
rfingers 7.12502
rthumb 24.8617 -37.1169
lclavicle -4.9398e-014 1.05356e-014
lhumerus -27.8199 9.19493 85.1396
lradius 20.612
lwrist -28.0697
lhand -6.68894 7.57897
lfingers 7.12502
lthumb 19.17 36.6542
rfemur -25.1727 -12.073 26.6342
rtibia 24.0876
rfoot -9.92115 15.3447
rtoes 27.8197
lfemur -10.8398 -1.9663 -15.4014
ltibia 48.5701
lfoot 10.145 -1.31253
ltoes -19.1577
254
root 1.16095 16.5565 0.423122 -172.555 -7.81433 -177.501
lowerback -10.7404 -3.03797 -0.70529
upperback 1.49101 -4.16511 2.18825
thorax 7.82999 -2.13113 1.98352
lowerneck -0.896692 -1.81999 -6.15955
upperneck -6.89649 -1.67891 9.07024
head -1.92836 -0.730801 4.12979
rclavicle 8.84592e-015 -8.74653e-015
rhumerus -41.5934 -27.2825 -68.2112
rradius 25.449
rwrist 32.9731
rhand -0.857749 -8.65
rfingers 7.12502
rthumb 24.7685 -37.0662
lclavicle 8.84592e-015 -8.74653e-015
lhumerus -28.1514 9.31649 84.8663
lradius 20.9214
lwrist -28.2802
lhand -6.64182 7.4323
lfingers 7.12502
lthumb 19.2153 36.503
rfemur -24.1284 -12.3177 27.3316
rtibia 23.5913
rfoot -10.0036 16.0982
rtoes 27.7253
lfemur -13.4184 -0.642063 -14.8259
ltibia 53.0108
lfoot 11.4524 -0.272629
ltoes -15.4381
255
root 1.20728 16.5582 0.270496 -172.802 -7.21064 -177.162
lowerback -10.1213 -2.80931 -0.289665
upperback 1.54364 -3.90833 2.14775
thorax 7.48739 -1.98858 1.78106
lowerneck -0.797152 -1.75244 -6.12205
upperneck -7.07895 -1.56856 9.10565
head -2.01672 -0.676359 4.13987
rclavicle 1.11568e-014 -1.10325e-014
rhumerus -40.7876 -26.585 -69.1657
rradius 25.8063
rwrist 32.6641
rhand -0.952388 -8.71831
rfingers 7.12502
rthumb 24.6778 -37.147
lclavicle 1.11568e-014 -1.10325e-014
lhumerus -28.3645 9.6375 84.4911
lradius 21.0413
lwrist -28.5389
lhand -7.13969 7.45091
lfingers 7.12502
lthumb 18.7365 36.5686
rfemur -23.0155 -11.787 27.7644
rtibia 22.9993
rfoot -10.1313 16.1508
rtoes 26.6856
lfemur -15.7789 0.76277 -14.4406
ltibia 56.9941
lfoot 10.5268 1.34688
ltoes -11.1855
256
root 1.23506 16.5757 0.0917528 -172.953 -6.99947 -176.88
lowerback -10.0682 -2.70455 0.192606
upperback 1.71069 -3.83369 2.12854
thorax 7.59888 -1.9321 1.50187
lowerneck -0.899292 -1.70556 -6.17724
upperneck -7.15604 -1.48507 9.14598
head -2.0306 -0.628267 4.16458
rclavicle 8.90804e-015 -5.56597e-015
rhumerus -39.8095 -26.4284 -69.7396
rradius 25.7619
rwrist 32.9112
rhand -1.33355 -8.51532
rfingers 7.12502
rthumb 24.3125 -36.9935
lclavicle 8.90804e-015 -5.56597e-015
lhumerus -28.3741 10.2567 84.1708
lradius 20.9466
lwrist -28.8786
lhand -7.90517 7.62723
lfingers 7.12502
lthumb 18.0001 36.8143
rfemur -21.9978 -12.7716 28.2594
rtibia 22.5237
rfoot -10.1317 17.4645
rtoes 26.5766
lfemur -18.1991 1.5024 -14.2278
ltibia 60.23
lfoot 8.73686 2.48458
ltoes -11.7408
257
root 1.24634 16.5949 -0.0719883 -173.001 -6.78439 -176.743
lowerback -9.99428 -2.55591 0.685671
upperback 1.81483 -3.69155 2.02977
thorax 7.62471 -1.83847 1.14656
lowerneck -0.863697 -1.71292 -5.97901
upperneck -7.24756 -1.49858 8.95349
head -2.06708 -0.637253 4.05857
rclavicle 2.91592e-014 -2.5842e-015
rhumerus -38.7688 -26.6716 -70.091
rradius 25.4092
rwrist 33.4332
rhand -1.59543 -8.53223
rfingers 7.12502
rthumb 24.0614 -37.0438
lclavicle 2.91592e-014 -2.5842e-015
lhumerus -28.4018 11.0896 83.7601
lradius 20.7598
lwrist -29.2195
lhand -8.64604 7.63284
lfingers 7.12502
lthumb 17.2871 36.884
rfemur -21.2287 -14.1903 28.6032
rtibia 22.2381
rfoot -10.0472 19.2202
rtoes 28.2221
lfemur -20.5331 1.93812 -14.3051
ltibia 62.6931
lfoot 6.85726 3.52947
ltoes -11.6706
258
root 1.27977 16.6023 -0.22264 -172.996 -6.0567 -177.158
lowerback -9.79357 -2.35005 0.180965
upperback 1.87838 -3.33056 1.87336
thorax 7.5888 -1.67768 1.3316
lowerneck -0.516535 -1.68289 -5.75091
upperneck -7.4461 -1.49173 8.56853
head -2.19855 -0.645081 3.88635
rclavicle 2.8948e-015 2.6339e-015
rhumerus -37.7124 -27.0668 -70.3635
rradius 25.0096
rwrist 34.1733
rhand -1.70716 -8.70217
rfingers 7.12502
rthumb 23.9542 -37.2278
lclavicle 2.8948e-015 2.6339e-015
lhumerus -28.494 12.1006 83.3141
lradius 20.5297
lwrist -29.4773
lhand -9.22497 7.65852
lfingers 7.12502
lthumb 16.7299 36.9577
rfemur -20.437 -13.6704 28.1462
rtibia 22.017
rfoot -10.4918 19.3557
rtoes 29.3148
lfemur -22.6885 2.55136 -14.9339
ltibia 64.4507
lfoot 5.18037 4.32176
ltoes -9.22316
259
root 1.30326 16.6055 -0.382699 -173.032 -5.66615 -177.47
lowerback -9.71802 -2.25728 -0.15486
upperback 1.95946 -3.15337 1.77773
thorax 7.64008 -1.60199 1.44991
lowerneck -0.42814 -1.58036 -5.85241
upperneck -7.25716 -1.38653 8.55741
head -2.16065 -0.597569 3.89923
rclavicle 9.69075e-015 2.5345e-015
rhumerus -36.7027 -27.4194 -70.6386
rradius 24.7299
rwrist 34.8356
rhand -1.78227 -8.7649
rfingers 7.12502
rthumb 23.8822 -37.3
lclavicle 9.69075e-015 2.5345e-015
lhumerus -28.5712 13.2614 82.9076
lradius 20.2669
lwrist -29.8376
lhand -9.29724 8.01362
lfingers 7.12502
lthumb 16.6603 37.3186
rfemur -19.6806 -13.6423 27.782
rtibia 22.022
rfoot -11.155 19.7538
rtoes 29.4035
lfemur -24.8 2.45782 -15.4402
ltibia 65.3464
lfoot 4.0793 4.21329
ltoes -10.0613
260
root 1.33103 16.5894 -0.521889 -173.04 -5.20431 -176.917
lowerback -9.47518 -2.04304 0.340692
upperback 1.98264 -2.94639 1.93248
thorax 7.50178 -1.48722 1.37632
lowerneck -0.621284 -1.51457 -5.69941
upperneck -6.90812 -1.35015 8.195
head -2.01291 -0.580221 3.73037
rclavicle 2.25807e-014 -1.90336e-014
rhumerus -35.75 -27.7119 -70.9875
rradius 24.6803
rwrist 35.356
rhand -1.7041 -8.77094
rfingers 7.12502
rthumb 23.9572 -37.2962
lclavicle 2.25807e-014 -1.90336e-014
lhumerus -28.6624 14.1943 82.587
lradius 20.1725
lwrist -30.0643
lhand -8.92179 8.36661
lfingers 7.12502
lthumb 17.0217 37.6408
rfemur -19.2311 -12.7942 28.3668
rtibia 22.2481
rfoot -12.1949 19.4453
rtoes 28.3705
lfemur -26.9045 2.55613 -14.9147
ltibia 65.7649
lfoot 2.9355 3.60729
ltoes -10.4934
261
root 1.35289 16.5834 -0.679631 -172.97 -4.77983 -177.03
lowerback -9.48507 -1.90507 0.23736
upperback 2.02675 -2.74192 1.857
thorax 7.55009 -1.38873 1.38669
lowerneck -0.741114 -1.48075 -5.53327
upperneck -6.61531 -1.34959 7.88089
head -1.89513 -0.582752 3.58024
rclavicle -3.25013e-014 1.44119e-014
rhumerus -34.9415 -27.6206 -71.5857
rradius 24.8308
rwrist 35.3537
rhand -1.8156 -8.66428
rfingers 7.12502
rthumb 23.8502 -37.2036
lclavicle -3.25013e-014 1.44119e-014
lhumerus -28.8221 14.617 82.3424
lradius 20.1587
lwrist -30.0465
lhand -8.59439 8.37159
lfingers 7.12502
lthumb 17.3368 37.6184
rfemur -18.7745 -12.604 28.2494
rtibia 22.4757
rfoot -12.7597 19.6735
rtoes 28.3507
lfemur -28.5819 2.27609 -15.1664
ltibia 65.4421
lfoot 1.21732 3.27378
ltoes -11.3419
262
root 1.37519 16.5762 -0.830719 -172.826 -4.24466 -177.245
lowerback -9.4224 -1.7405 -0.00331728
upperback 1.97627 -2.47696 1.74038
thorax 7.4575 -1.26477 1.44409
lowerneck -0.718382 -1.43039 -5.5041
upperneck -6.38349 -1.31532 7.77849
head -1.82592 -0.570672 3.53486
rclavicle 4.1751e-014 -1.56046e-014
rhumerus -34.3446 -26.8187 -72.474
rradius 25.2823
rwrist 34.5178
rhand -2.04298 -8.52465
rfingers 7.12502
rthumb 23.6322 -37.0923
lclavicle 4.1751e-014 -1.56046e-014
lhumerus -28.9718 14.7916 82.1139
lradius 19.9299
lwrist -30.1359
lhand -8.50636 8.04441
lfingers 7.12502
lthumb 17.4216 37.2837
rfemur -18.5031 -12.0101 27.9985
rtibia 22.9018
rfoot -13.4848 19.6049
rtoes 28.607
lfemur -30.2392 1.93237 -15.4917
ltibia 64.5976
lfoot -0.471714 3.54479
ltoes -11.3664
263
root 1.39692 16.5563 -0.977447 -172.853 -3.77331 -176.725
lowerback -9.16157 -1.51898 0.499927
upperback 1.9709 -2.24875 1.80794
thorax 7.27821 -1.13588 1.27467
lowerneck -0.852021 -1.3592 -5.61056
upperneck -6.09904 -1.2339 7.86743
head -1.71453 -0.529243 3.57953
rclavicle 1.17531e-014 -1.14053e-014
rhumerus -33.7249 -25.8041 -73.5107
rradius 25.8559
rwrist 33.4846
rhand -2.18804 -8.51231
rfingers 7.12502
rthumb 23.493 -37.0978
lclavicle 1.17531e-014 -1.14053e-014
lhumerus -29.0975 14.421 82.0474
lradius 19.8536
lwrist -29.7603
lhand -8.36458 7.84644
lfingers 7.12502
lthumb 17.558 37.0736
rfemur -18.1311 -11.067 28.4997
rtibia 23.4326
rfoot -14.5467 19.1892
rtoes 28.2763
lfemur -31.7462 1.57682 -14.8942
ltibia 63.3025
lfoot -1.81528 4.04359
ltoes -11.2903
264
root 1.40192 16.5403 -1.12495 -172.596 -3.49983 -177.182
lowerback -9.17019 -1.49601 0.194549
upperback 1.94346 -2.1575 1.59777
thorax 7.25432 -1.09541 1.23972
lowerneck -0.912889 -1.26147 -5.79105
upperneck -6.05689 -1.09735 7.97821
head -1.70003 -0.45734 3.65131
rclavicle 8.54619e-015 1.05853e-014
rhumerus -32.9752 -24.7062 -74.6305
rradius 26.4003
rwrist 32.5942
rhand -2.31835 -8.57419
rfingers 7.12502
rthumb 23.368 -37.1756
lclavicle 8.54619e-015 1.05853e-014
lhumerus -29.3585 13.6198 82.1564
lradius 20.2826
lwrist -28.8995
lhand -7.93115 7.99575
lfingers 7.12502
lthumb 17.9751 37.1851
rfemur -18.0525 -10.8263 27.9886
rtibia 23.9956
rfoot -15.4817 19.1236
rtoes 27.6004
lfemur -33.2106 0.683563 -15.3766
ltibia 61.3799
lfoot -2.9868 4.74523
ltoes -12.2409
